<ttFont>
<head>
    <!-- Most of this table will be recalculated by the compiler -->
    <tableVersion value="1.0"/>
    <fontRevision value="1.0"/>
    <checkSumAdjustment value="0xbb492d7d"/>
    <magicNumber value="0x5f0f3cf5"/>
    <flags value="00000000 00000001"/>
    <unitsPerEm value="1000"/>
    <created value="Thu Jan 18 15:57:46 2024"/>
    <modified value="Thu Jan 18 15:57:46 2024"/>
    <xMin value="0"/>
    <yMin value="0"/>
    <xMax value="1200"/>
    <yMax value="1000"/>
    <macStyle value="00000000 00000000"/>
    <lowestRecPPEM value="3"/>
    <fontDirectionHint value="2"/>
    <indexToLocFormat value="0"/>
    <glyphDataFormat value="0"/>
  </head>
    <TTGlyph name="circle_r100" xMin="400" yMin="500" xMax="600" yMax="700">
      <contour>
        <pt x="600" y="600" on="1"/>
        <pt x="600" y="559" on="0"/>
        <pt x="541" y="500" on="0"/>
        <pt x="500" y="500" on="1"/>
        <pt x="500" y="600" on="1"/>
      </contour>
      <contour>
        <pt x="400" y="600" on="1"/>
        <pt x="400" y="559" on="0"/>
        <pt x="459" y="500" on="0"/>
        <pt x="500" y="500" on="1"/>
        <pt x="500" y="600" on="1"/>
      </contour>
      <contour>
        <pt x="400" y="600" on="1"/>
        <pt x="400" y="641" on="0"/>
        <pt x="459" y="700" on="0"/>
        <pt x="500" y="700" on="1"/>
        <pt x="500" y="600" on="1"/>
      </contour>
      <contour>
        <pt x="600" y="600" on="1"/>
        <pt x="600" y="641" on="0"/>
        <pt x="541" y="700" on="0"/>
        <pt x="500" y="700" on="1"/>
        <pt x="500" y="600" on="1"/>
      </contour>
    </TTGlyph>
    <TTGlyph name="circle_r150" xMin="350" yMin="450" xMax="650" yMax="750">
      <contour>
        <pt x="650" y="600" on="1"/>
        <pt x="650" y="559" on="0"/>
        <pt x="610" y="490" on="0"/>
        <pt x="541" y="450" on="0"/>
        <pt x="500" y="450" on="1"/>
        <pt x="500" y="600" on="1"/>
      </contour>
      <contour>
        <pt x="350" y="600" on="1"/>
        <pt x="350" y="559" on="0"/>
        <pt x="390" y="490" on="0"/>
        <pt x="459" y="450" on="0"/>
        <pt x="500" y="450" on="1"/>
        <pt x="500" y="600" on="1"/>
      </contour>
      <contour>
        <pt x="350" y="600" on="1"/>
        <pt x="350" y="641" on="0"/>
        <pt x="390" y="710" on="0"/>
        <pt x="459" y="750" on="0"/>
        <pt x="500" y="750" on="1"/>
        <pt x="500" y="600" on="1"/>
      </contour>
      <contour>
        <pt x="650" y="600" on="1"/>
        <pt x="650" y="641" on="0"/>
        <pt x="610" y="710" on="0"/>
        <pt x="541" y="750" on="0"/>
        <pt x="500" y="750" on="1"/>
        <pt x="500" y="600" on="1"/>
      </contour>
    </TTGlyph>
    <TTGlyph name="circle_r200" xMin="300" yMin="400" xMax="700" yMax="800">
      <contour>
        <pt x="700" y="600" on="1"/>
        <pt x="700" y="545" on="0"/>
        <pt x="646" y="454" on="0"/>
        <pt x="555" y="400" on="0"/>
        <pt x="500" y="400" on="1"/>
        <pt x="500" y="600" on="1"/>
      </contour>
      <contour>
        <pt x="300" y="600" on="1"/>
        <pt x="300" y="545" on="0"/>
        <pt x="354" y="454" on="0"/>
        <pt x="445" y="400" on="0"/>
        <pt x="500" y="400" on="1"/>
        <pt x="500" y="600" on="1"/>
      </contour>
      <contour>
        <pt x="300" y="600" on="1"/>
        <pt x="300" y="655" on="0"/>
        <pt x="354" y="746" on="0"/>
        <pt x="445" y="800" on="0"/>
        <pt x="500" y="800" on="1"/>
        <pt x="500" y="600" on="1"/>
      </contour>
      <contour>
        <pt x="700" y="600" on="1"/>
        <pt x="700" y="655" on="0"/>
        <pt x="646" y="746" on="0"/>
        <pt x="555" y="800" on="0"/>
        <pt x="500" y="800" on="1"/>
        <pt x="500" y="600" on="1"/>
      </contour>
    </TTGlyph>
    <TTGlyph name="circle_r250" xMin="250" yMin="350" xMax="750" yMax="850">
      <contour>
        <pt x="750" y="600" on="1"/>
        <pt x="750" y="531" on="0"/>
        <pt x="683" y="417" on="0"/>
        <pt x="569" y="350" on="0"/>
        <pt x="500" y="350" on="1"/>
        <pt x="500" y="600" on="1"/>
      </contour>
      <contour>
        <pt x="250" y="600" on="1"/>
        <pt x="250" y="531" on="0"/>
        <pt x="317" y="417" on="0"/>
        <pt x="431" y="350" on="0"/>
        <pt x="500" y="350" on="1"/>
        <pt x="500" y="600" on="1"/>
      </contour>
      <contour>
        <pt x="250" y="600" on="1"/>
        <pt x="250" y="669" on="0"/>
        <pt x="317" y="783" on="0"/>
        <pt x="431" y="850" on="0"/>
        <pt x="500" y="850" on="1"/>
        <pt x="500" y="600" on="1"/>
      </contour>
      <contour>
        <pt x="750" y="600" on="1"/>
        <pt x="750" y="669" on="0"/>
        <pt x="683" y="783" on="0"/>
        <pt x="569" y="850" on="0"/>
        <pt x="500" y="850" on="1"/>
        <pt x="500" y="600" on="1"/>
      </contour>
    </TTGlyph>
    <TTGlyph name="circle_r300" xMin="200" yMin="300" xMax="800" yMax="900">
      <contour>
        <pt x="800" y="600" on="1"/>
        <pt x="800" y="538" on="0"/>
        <pt x="753" y="429" on="0"/>
        <pt x="671" y="347" on="0"/>
        <pt x="562" y="300" on="0"/>
        <pt x="500" y="300" on="1"/>
        <pt x="500" y="600" on="1"/>
      </contour>
      <contour>
        <pt x="200" y="600" on="1"/>
        <pt x="200" y="538" on="0"/>
        <pt x="247" y="429" on="0"/>
        <pt x="329" y="347" on="0"/>
        <pt x="438" y="300" on="0"/>
        <pt x="500" y="300" on="1"/>
        <pt x="500" y="600" on="1"/>
      </contour>
      <contour>
        <pt x="200" y="600" on="1"/>
        <pt x="200" y="662" on="0"/>
        <pt x="247" y="771" on="0"/>
        <pt x="329" y="853" on="0"/>
        <pt x="438" y="900" on="0"/>
        <pt x="500" y="900" on="1"/>
        <pt x="500" y="600" on="1"/>
      </contour>
      <contour>
        <pt x="800" y="600" on="1"/>
        <pt x="800" y="662" on="0"/>
        <pt x="753" y="771" on="0"/>
        <pt x="671" y="853" on="0"/>
        <pt x="562" y="900" on="0"/>
        <pt x="500" y="900" on="1"/>
        <pt x="500" y="600" on="1"/>
      </contour>
    </TTGlyph>
    <TTGlyph name="circle_r350" xMin="150" yMin="250" xMax="850" yMax="950">
      <contour>
        <pt x="850" y="600" on="1"/>
        <pt x="850" y="528" on="0"/>
        <pt x="796" y="401" on="0"/>
        <pt x="699" y="304" on="0"/>
        <pt x="572" y="250" on="0"/>
        <pt x="500" y="250" on="1"/>
        <pt x="500" y="600" on="1"/>
      </contour>
      <contour>
        <pt x="150" y="600" on="1"/>
        <pt x="150" y="528" on="0"/>
        <pt x="204" y="401" on="0"/>
        <pt x="301" y="304" on="0"/>
        <pt x="428" y="250" on="0"/>
        <pt x="500" y="250" on="1"/>
        <pt x="500" y="600" on="1"/>
      </contour>
      <contour>
        <pt x="150" y="600" on="1"/>
        <pt x="150" y="672" on="0"/>
        <pt x="204" y="799" on="0"/>
        <pt x="301" y="896" on="0"/>
        <pt x="428" y="950" on="0"/>
        <pt x="500" y="950" on="1"/>
        <pt x="500" y="600" on="1"/>
      </contour>
      <contour>
        <pt x="850" y="600" on="1"/>
        <pt x="850" y="672" on="0"/>
        <pt x="796" y="799" on="0"/>
        <pt x="699" y="896" on="0"/>
        <pt x="572" y="950" on="0"/>
        <pt x="500" y="950" on="1"/>
        <pt x="500" y="600" on="1"/>
      </contour>
    </TTGlyph>
    <TTGlyph name="circle_r50" xMin="450" yMin="550" xMax="550" yMax="650">
      <contour>
        <pt x="550" y="600" on="1"/>
        <pt x="550" y="579" on="0"/>
        <pt x="521" y="550" on="0"/>
        <pt x="500" y="550" on="1"/>
        <pt x="500" y="600" on="1"/>
      </contour>
      <contour>
        <pt x="450" y="600" on="1"/>
        <pt x="450" y="579" on="0"/>
        <pt x="479" y="550" on="0"/>
        <pt x="500" y="550" on="1"/>
        <pt x="500" y="600" on="1"/>
      </contour>
      <contour>
        <pt x="450" y="600" on="1"/>
        <pt x="450" y="621" on="0"/>
        <pt x="479" y="650" on="0"/>
        <pt x="500" y="650" on="1"/>
        <pt x="500" y="600" on="1"/>
      </contour>
      <contour>
        <pt x="550" y="600" on="1"/>
        <pt x="550" y="621" on="0"/>
        <pt x="521" y="650" on="0"/>
        <pt x="500" y="650" on="1"/>
        <pt x="500" y="600" on="1"/>
      </contour>
    </TTGlyph>
    <TTGlyph name="clip_box_bottom_left" xMin="0" yMin="0" xMax="1000" yMax="1000">
      <contour>
        <pt x="0" y="0" on="1"/>
        <pt x="0" y="1000" on="1"/>
        <pt x="1000" y="1000" on="1"/>
        <pt x="1000" y="0" on="1"/>
      </contour>
    </TTGlyph>
    <TTGlyph name="clip_box_bottom_right" xMin="0" yMin="0" xMax="1000" yMax="1000">
      <contour>
        <pt x="0" y="0" on="1"/>
        <pt x="0" y="1000" on="1"/>
        <pt x="1000" y="1000" on="1"/>
        <pt x="1000" y="0" on="1"/>
      </contour>
    </TTGlyph>
    <TTGlyph name="clip_box_center" xMin="0" yMin="0" xMax="1000" yMax="1000">
      <contour>
        <pt x="0" y="0" on="1"/>
        <pt x="0" y="1000" on="1"/>
        <pt x="1000" y="1000" on="1"/>
        <pt x="1000" y="0" on="1"/>
      </contour>
    </TTGlyph>
    <TTGlyph name="clip_box_top_left" xMin="0" yMin="0" xMax="1000" yMax="1000">
      <contour>
        <pt x="0" y="0" on="1"/>
        <pt x="0" y="1000" on="1"/>
        <pt x="1000" y="1000" on="1"/>
        <pt x="1000" y="0" on="1"/>
      </contour>
    </TTGlyph>
    <TTGlyph name="clip_box_top_right" xMin="0" yMin="0" xMax="1000" yMax="1000">
      <contour>
        <pt x="0" y="0" on="1"/>
        <pt x="0" y="1000" on="1"/>
        <pt x="1000" y="1000" on="1"/>
        <pt x="1000" y="0" on="1"/>
      </contour>
    </TTGlyph>
    <TTGlyph name="clip_shade_bottom_left" xMin="0" yMin="0" xMax="500" yMax="500">
      <contour>
        <pt x="0" y="0" on="1"/>
        <pt x="0" y="500" on="1"/>
        <pt x="500" y="500" on="1"/>
        <pt x="500" y="0" on="1"/>
      </contour>
    </TTGlyph>
    <TTGlyph name="clip_shade_bottom_right" xMin="500" yMin="0" xMax="1000" yMax="500">
      <contour>
        <pt x="500" y="0" on="1"/>
        <pt x="500" y="500" on="1"/>
        <pt x="1000" y="500" on="1"/>
        <pt x="1000" y="0" on="1"/>
      </contour>
    </TTGlyph>
    <TTGlyph name="clip_shade_center" xMin="250" yMin="250" xMax="750" yMax="750">
      <contour>
        <pt x="250" y="250" on="1"/>
        <pt x="250" y="750" on="1"/>
        <pt x="750" y="750" on="1"/>
        <pt x="750" y="250" on="1"/>
      </contour>
    </TTGlyph>
    <TTGlyph name="clip_shade_top_left" xMin="0" yMin="500" xMax="500" yMax="1000">
      <contour>
        <pt x="0" y="500" on="1"/>
        <pt x="0" y="1000" on="1"/>
        <pt x="500" y="1000" on="1"/>
        <pt x="500" y="500" on="1"/>
      </contour>
    </TTGlyph>
    <TTGlyph name="clip_shade_top_right" xMin="500" yMin="500" xMax="1000" yMax="1000">
      <contour>
        <pt x="500" y="500" on="1"/>
        <pt x="500" y="1000" on="1"/>
        <pt x="1000" y="1000" on="1"/>
        <pt x="1000" y="500" on="1"/>
      </contour>
    </TTGlyph>
    <TTGlyph name="colored_circles_v0" xMin="0" yMin="0" xMax="1000" yMax="1000">
      <contour>
        <pt x="0" y="0" on="1"/>
        <pt x="0" y="1000" on="1"/>
        <pt x="1000" y="1000" on="1"/>
        <pt x="1000" y="0" on="1"/>
      </contour>
    </TTGlyph>
    <TTGlyph name="colored_circles_v1" xMin="0" yMin="0" xMax="1000" yMax="1000">
      <contour>
        <pt x="0" y="0" on="1"/>
        <pt x="0" y="1000" on="1"/>
        <pt x="1000" y="1000" on="1"/>
        <pt x="1000" y="0" on="1"/>
      </contour>
    </TTGlyph>
    <TTGlyph name="composite_CLEAR" xMin="0" yMin="0" xMax="1000" yMax="1000">
      <contour>
        <pt x="0" y="0" on="1"/>
        <pt x="0" y="1000" on="1"/>
        <pt x="1000" y="1000" on="1"/>
        <pt x="1000" y="0" on="1"/>
      </contour>
    </TTGlyph>
    <TTGlyph name="composite_COLOR_BURN" xMin="0" yMin="0" xMax="1000" yMax="1000">
      <contour>
        <pt x="0" y="0" on="1"/>
        <pt x="0" y="1000" on="1"/>
        <pt x="1000" y="1000" on="1"/>
        <pt x="1000" y="0" on="1"/>
      </contour>
    </TTGlyph>
    <TTGlyph name="composite_COLOR_DODGE" xMin="0" yMin="0" xMax="1000" yMax="1000">
      <contour>
        <pt x="0" y="0" on="1"/>
        <pt x="0" y="1000" on="1"/>
        <pt x="1000" y="1000" on="1"/>
        <pt x="1000" y="0" on="1"/>
      </contour>
    </TTGlyph>
    <TTGlyph name="composite_DARKEN" xMin="0" yMin="0" xMax="1000" yMax="1000">
      <contour>
        <pt x="0" y="0" on="1"/>
        <pt x="0" y="1000" on="1"/>
        <pt x="1000" y="1000" on="1"/>
        <pt x="1000" y="0" on="1"/>
      </contour>
    </TTGlyph>
    <TTGlyph name="composite_DEST" xMin="0" yMin="0" xMax="1000" yMax="1000">
      <contour>
        <pt x="0" y="0" on="1"/>
        <pt x="0" y="1000" on="1"/>
        <pt x="1000" y="1000" on="1"/>
        <pt x="1000" y="0" on="1"/>
      </contour>
    </TTGlyph>
    <TTGlyph name="composite_DEST_ATOP" xMin="0" yMin="0" xMax="1000" yMax="1000">
      <contour>
        <pt x="0" y="0" on="1"/>
        <pt x="0" y="1000" on="1"/>
        <pt x="1000" y="1000" on="1"/>
        <pt x="1000" y="0" on="1"/>
      </contour>
    </TTGlyph>
    <TTGlyph name="composite_DEST_IN" xMin="0" yMin="0" xMax="1000" yMax="1000">
      <contour>
        <pt x="0" y="0" on="1"/>
        <pt x="0" y="1000" on="1"/>
        <pt x="1000" y="1000" on="1"/>
        <pt x="1000" y="0" on="1"/>
      </contour>
    </TTGlyph>
    <TTGlyph name="composite_DEST_OUT" xMin="0" yMin="0" xMax="1000" yMax="1000">
      <contour>
        <pt x="0" y="0" on="1"/>
        <pt x="0" y="1000" on="1"/>
        <pt x="1000" y="1000" on="1"/>
        <pt x="1000" y="0" on="1"/>
      </contour>
    </TTGlyph>
    <TTGlyph name="composite_DEST_OVER" xMin="0" yMin="0" xMax="1000" yMax="1000">
      <contour>
        <pt x="0" y="0" on="1"/>
        <pt x="0" y="1000" on="1"/>
        <pt x="1000" y="1000" on="1"/>
        <pt x="1000" y="0" on="1"/>
      </contour>
    </TTGlyph>
    <TTGlyph name="composite_DIFFERENCE" xMin="0" yMin="0" xMax="1000" yMax="1000">
      <contour>
        <pt x="0" y="0" on="1"/>
        <pt x="0" y="1000" on="1"/>
        <pt x="1000" y="1000" on="1"/>
        <pt x="1000" y="0" on="1"/>
      </contour>
    </TTGlyph>
    <TTGlyph name="composite_EXCLUSION" xMin="0" yMin="0" xMax="1000" yMax="1000">
      <contour>
        <pt x="0" y="0" on="1"/>
        <pt x="0" y="1000" on="1"/>
        <pt x="1000" y="1000" on="1"/>
        <pt x="1000" y="0" on="1"/>
      </contour>
    </TTGlyph>
    <TTGlyph name="composite_HARD_LIGHT" xMin="0" yMin="0" xMax="1000" yMax="1000">
      <contour>
        <pt x="0" y="0" on="1"/>
        <pt x="0" y="1000" on="1"/>
        <pt x="1000" y="1000" on="1"/>
        <pt x="1000" y="0" on="1"/>
      </contour>
    </TTGlyph>
    <TTGlyph name="composite_HSL_COLOR" xMin="0" yMin="0" xMax="1000" yMax="1000">
      <contour>
        <pt x="0" y="0" on="1"/>
        <pt x="0" y="1000" on="1"/>
        <pt x="1000" y="1000" on="1"/>
        <pt x="1000" y="0" on="1"/>
      </contour>
    </TTGlyph>
    <TTGlyph name="composite_HSL_HUE" xMin="0" yMin="0" xMax="1000" yMax="1000">
      <contour>
        <pt x="0" y="0" on="1"/>
        <pt x="0" y="1000" on="1"/>
        <pt x="1000" y="1000" on="1"/>
        <pt x="1000" y="0" on="1"/>
      </contour>
    </TTGlyph>
    <TTGlyph name="composite_HSL_LUMINOSITY" xMin="0" yMin="0" xMax="1000" yMax="1000">
      <contour>
        <pt x="0" y="0" on="1"/>
        <pt x="0" y="1000" on="1"/>
        <pt x="1000" y="1000" on="1"/>
        <pt x="1000" y="0" on="1"/>
      </contour>
    </TTGlyph>
    <TTGlyph name="composite_HSL_SATURATION" xMin="0" yMin="0" xMax="1000" yMax="1000">
      <contour>
        <pt x="0" y="0" on="1"/>
        <pt x="0" y="1000" on="1"/>
        <pt x="1000" y="1000" on="1"/>
        <pt x="1000" y="0" on="1"/>
      </contour>
    </TTGlyph>
    <TTGlyph name="composite_LIGHTEN" xMin="0" yMin="0" xMax="1000" yMax="1000">
      <contour>
        <pt x="0" y="0" on="1"/>
        <pt x="0" y="1000" on="1"/>
        <pt x="1000" y="1000" on="1"/>
        <pt x="1000" y="0" on="1"/>
      </contour>
    </TTGlyph>
    <TTGlyph name="composite_MULTIPLY" xMin="0" yMin="0" xMax="1000" yMax="1000">
      <contour>
        <pt x="0" y="0" on="1"/>
        <pt x="0" y="1000" on="1"/>
        <pt x="1000" y="1000" on="1"/>
        <pt x="1000" y="0" on="1"/>
      </contour>
    </TTGlyph>
    <TTGlyph name="composite_OVERLAY" xMin="0" yMin="0" xMax="1000" yMax="1000">
      <contour>
        <pt x="0" y="0" on="1"/>
        <pt x="0" y="1000" on="1"/>
        <pt x="1000" y="1000" on="1"/>
        <pt x="1000" y="0" on="1"/>
      </contour>
    </TTGlyph>
    <TTGlyph name="composite_PLUS" xMin="0" yMin="0" xMax="1000" yMax="1000">
      <contour>
        <pt x="0" y="0" on="1"/>
        <pt x="0" y="1000" on="1"/>
        <pt x="1000" y="1000" on="1"/>
        <pt x="1000" y="0" on="1"/>
      </contour>
    </TTGlyph>
    <TTGlyph name="composite_SCREEN" xMin="0" yMin="0" xMax="1000" yMax="1000">
      <contour>
        <pt x="0" y="0" on="1"/>
        <pt x="0" y="1000" on="1"/>
        <pt x="1000" y="1000" on="1"/>
        <pt x="1000" y="0" on="1"/>
      </contour>
    </TTGlyph>
    <TTGlyph name="composite_SOFT_LIGHT" xMin="0" yMin="0" xMax="1000" yMax="1000">
      <contour>
        <pt x="0" y="0" on="1"/>
        <pt x="0" y="1000" on="1"/>
        <pt x="1000" y="1000" on="1"/>
        <pt x="1000" y="0" on="1"/>
      </contour>
    </TTGlyph>
    <TTGlyph name="composite_SRC" xMin="0" yMin="0" xMax="1000" yMax="1000">
      <contour>
        <pt x="0" y="0" on="1"/>
        <pt x="0" y="1000" on="1"/>
        <pt x="1000" y="1000" on="1"/>
        <pt x="1000" y="0" on="1"/>
      </contour>
    </TTGlyph>
    <TTGlyph name="composite_SRC_ATOP" xMin="0" yMin="0" xMax="1000" yMax="1000">
      <contour>
        <pt x="0" y="0" on="1"/>
        <pt x="0" y="1000" on="1"/>
        <pt x="1000" y="1000" on="1"/>
        <pt x="1000" y="0" on="1"/>
      </contour>
    </TTGlyph>
    <TTGlyph name="composite_SRC_IN" xMin="0" yMin="0" xMax="1000" yMax="1000">
      <contour>
        <pt x="0" y="0" on="1"/>
        <pt x="0" y="1000" on="1"/>
        <pt x="1000" y="1000" on="1"/>
        <pt x="1000" y="0" on="1"/>
      </contour>
    </TTGlyph>
    <TTGlyph name="composite_SRC_OUT" xMin="0" yMin="0" xMax="1000" yMax="1000">
      <contour>
        <pt x="0" y="0" on="1"/>
        <pt x="0" y="1000" on="1"/>
        <pt x="1000" y="1000" on="1"/>
        <pt x="1000" y="0" on="1"/>
      </contour>
    </TTGlyph>
    <TTGlyph name="composite_SRC_OVER" xMin="0" yMin="0" xMax="1000" yMax="1000">
      <contour>
        <pt x="0" y="0" on="1"/>
        <pt x="0" y="1000" on="1"/>
        <pt x="1000" y="1000" on="1"/>
        <pt x="1000" y="0" on="1"/>
      </contour>
    </TTGlyph>
    <TTGlyph name="composite_XOR" xMin="0" yMin="0" xMax="1000" yMax="1000">
      <contour>
        <pt x="0" y="0" on="1"/>
        <pt x="0" y="1000" on="1"/>
        <pt x="1000" y="1000" on="1"/>
        <pt x="1000" y="0" on="1"/>
      </contour>
    </TTGlyph>
    <TTGlyph name="cross_glyph" xMin="250" yMin="250" xMax="750" yMax="750">
      <contour>
        <pt x="475" y="525" on="1"/>
        <pt x="475" y="750" on="1"/>
        <pt x="525" y="750" on="1"/>
        <pt x="525" y="525" on="1"/>
        <pt x="750" y="525" on="1"/>
        <pt x="750" y="475" on="1"/>
        <pt x="525" y="475" on="1"/>
        <pt x="525" y="250" on="1"/>
        <pt x="475" y="250" on="1"/>
        <pt x="475" y="475" on="1"/>
        <pt x="250" y="475" on="1"/>
        <pt x="250" y="525" on="1"/>
      </contour>
    </TTGlyph>
    <TTGlyph name="foreground_color_linear_alpha_0.3" xMin="0" yMin="0" xMax="1000" yMax="1000">
      <contour>
        <pt x="0" y="0" on="1"/>
        <pt x="0" y="1000" on="1"/>
        <pt x="1000" y="1000" on="1"/>
        <pt x="1000" y="0" on="1"/>
      </contour>
    </TTGlyph>
    <TTGlyph name="foreground_color_linear_alpha_1" xMin="0" yMin="0" xMax="1000" yMax="1000">
      <contour>
        <pt x="0" y="0" on="1"/>
        <pt x="0" y="1000" on="1"/>
        <pt x="1000" y="1000" on="1"/>
        <pt x="1000" y="0" on="1"/>
      </contour>
    </TTGlyph>
    <TTGlyph name="foreground_color_radial_alpha_0.3" xMin="0" yMin="0" xMax="1000" yMax="1000">
      <contour>
        <pt x="0" y="0" on="1"/>
        <pt x="0" y="1000" on="1"/>
        <pt x="1000" y="1000" on="1"/>
        <pt x="1000" y="0" on="1"/>
      </contour>
    </TTGlyph>
    <TTGlyph name="foreground_color_radial_alpha_1" xMin="0" yMin="0" xMax="1000" yMax="1000">
      <contour>
        <pt x="0" y="0" on="1"/>
        <pt x="0" y="1000" on="1"/>
        <pt x="1000" y="1000" on="1"/>
        <pt x="1000" y="0" on="1"/>
      </contour>
    </TTGlyph>
    <TTGlyph name="foreground_color_solid_alpha_0.3" xMin="0" yMin="0" xMax="1000" yMax="1000">
      <contour>
        <pt x="0" y="0" on="1"/>
        <pt x="0" y="1000" on="1"/>
        <pt x="1000" y="1000" on="1"/>
        <pt x="1000" y="0" on="1"/>
      </contour>
    </TTGlyph>
    <TTGlyph name="foreground_color_solid_alpha_1" xMin="0" yMin="0" xMax="1000" yMax="1000">
      <contour>
        <pt x="0" y="0" on="1"/>
        <pt x="0" y="1000" on="1"/>
        <pt x="1000" y="1000" on="1"/>
        <pt x="1000" y="0" on="1"/>
      </contour>
    </TTGlyph>
    <TTGlyph name="foreground_color_sweep_alpha_0.3" xMin="0" yMin="0" xMax="1000" yMax="1000">
      <contour>
        <pt x="0" y="0" on="1"/>
        <pt x="0" y="1000" on="1"/>
        <pt x="1000" y="1000" on="1"/>
        <pt x="1000" y="0" on="1"/>
      </contour>
    </TTGlyph>
    <TTGlyph name="foreground_color_sweep_alpha_1" xMin="0" yMin="0" xMax="1000" yMax="1000">
      <contour>
        <pt x="0" y="0" on="1"/>
        <pt x="0" y="1000" on="1"/>
        <pt x="1000" y="1000" on="1"/>
        <pt x="1000" y="0" on="1"/>
      </contour>
    </TTGlyph>
    <TTGlyph name="gradient_p2_skewed" xMin="100" yMin="250" xMax="1200" yMax="950">
      <contour>
        <pt x="100" y="250" on="1"/>
        <pt x="100" y="950" on="1"/>
        <pt x="1200" y="950" on="1"/>
        <pt x="1200" y="250" on="1"/>
      </contour>
    </TTGlyph>
    <TTGlyph name="inset_clipped_radial_reflect" xMin="0" yMin="0" xMax="1000" yMax="1000">
      <contour>
        <pt x="0" y="0" on="1"/>
        <pt x="0" y="1000" on="1"/>
        <pt x="1000" y="1000" on="1"/>
        <pt x="1000" y="0" on="1"/>
      </contour>
    </TTGlyph>
    <TTGlyph name="linear_gradient_extend_mode_pad" xMin="0" yMin="0" xMax="1000" yMax="1000">
      <contour>
        <pt x="0" y="0" on="1"/>
        <pt x="0" y="1000" on="1"/>
        <pt x="1000" y="1000" on="1"/>
        <pt x="1000" y="0" on="1"/>
      </contour>
    </TTGlyph>
    <TTGlyph name="linear_gradient_extend_mode_reflect" xMin="0" yMin="0" xMax="1000" yMax="1000">
      <contour>
        <pt x="0" y="0" on="1"/>
        <pt x="0" y="1000" on="1"/>
        <pt x="1000" y="1000" on="1"/>
        <pt x="1000" y="0" on="1"/>
      </contour>
    </TTGlyph>
    <TTGlyph name="linear_gradient_extend_mode_repeat" xMin="0" yMin="0" xMax="1000" yMax="1000">
      <contour>
        <pt x="0" y="0" on="1"/>
        <pt x="0" y="1000" on="1"/>
        <pt x="1000" y="1000" on="1"/>
        <pt x="1000" y="0" on="1"/>
      </contour>
    </TTGlyph>
    <TTGlyph name="linear_repeat_0.2_0.8" xMin="100" yMin="250" xMax="900" yMax="950">
      <contour>
        <pt x="100" y="250" on="1"/>
        <pt x="100" y="950" on="1"/>
        <pt x="900" y="950" on="1"/>
        <pt x="900" y="250" on="1"/>
      </contour>
    </TTGlyph>
    <TTGlyph name="linear_repeat_0.5_1.5" xMin="100" yMin="250" xMax="900" yMax="950">
      <contour>
        <pt x="100" y="250" on="1"/>
        <pt x="100" y="950" on="1"/>
        <pt x="900" y="950" on="1"/>
        <pt x="900" y="250" on="1"/>
      </contour>
    </TTGlyph>
    <TTGlyph name="linear_repeat_0_1" xMin="100" yMin="250" xMax="900" yMax="950">
      <contour>
        <pt x="100" y="250" on="1"/>
        <pt x="100" y="950" on="1"/>
        <pt x="900" y="950" on="1"/>
        <pt x="900" y="250" on="1"/>
      </contour>
    </TTGlyph>
    <TTGlyph name="linear_repeat_0_1.5" xMin="100" yMin="250" xMax="900" yMax="950">
      <contour>
        <pt x="100" y="250" on="1"/>
        <pt x="100" y="950" on="1"/>
        <pt x="900" y="950" on="1"/>
        <pt x="900" y="250" on="1"/>
      </contour>
    </TTGlyph>
    <TTGlyph name="negative_cross" xMin="0" yMin="0" xMax="1000" yMax="1000">
      <contour>
        <pt x="0" y="0" on="1"/>
        <pt x="495" y="0" on="1"/>
        <pt x="495" y="495" on="1"/>
        <pt x="0" y="495" on="1"/>
      </contour>
      <contour>
        <pt x="505" y="0" on="1"/>
        <pt x="1000" y="0" on="1"/>
        <pt x="1000" y="495" on="1"/>
        <pt x="505" y="495" on="1"/>
      </contour>
      <contour>
        <pt x="505" y="505" on="1"/>
        <pt x="1000" y="505" on="1"/>
        <pt x="1000" y="1000" on="1"/>
        <pt x="505" y="1000" on="1"/>
      </contour>
      <contour>
        <pt x="0" y="505" on="1"/>
        <pt x="495" y="505" on="1"/>
        <pt x="495" y="1000" on="1"/>
        <pt x="0" y="1000" on="1"/>
      </contour>
    </TTGlyph>
    <TTGlyph name="no_cycle_multi_colrglyph" xMin="0" yMin="0" xMax="1000" yMax="1000">
      <contour>
        <pt x="0" y="0" on="1"/>
        <pt x="0" y="1000" on="1"/>
        <pt x="1000" y="1000" on="1"/>
        <pt x="1000" y="0" on="1"/>
      </contour>
    </TTGlyph>
    <TTGlyph name="one" xMin="184" yMin="250" xMax="296" yMax="543">
      <contour>
        <pt x="296" y="543" on="1"/>
        <pt x="296" y="250" on="1"/>
        <pt x="259" y="250" on="1"/>
        <pt x="259" y="497" on="1"/>
        <pt x="184" y="466" on="1"/>
        <pt x="184" y="503" on="1"/>
        <pt x="290" y="543" on="1"/>
      </contour>
    </TTGlyph>
    <TTGlyph name="paint_glyph_nested_identity_identity" xMin="0" yMin="0" xMax="1000" yMax="1000">
      <contour>
        <pt x="0" y="0" on="1"/>
        <pt x="0" y="1000" on="1"/>
        <pt x="1000" y="1000" on="1"/>
        <pt x="1000" y="0" on="1"/>
      </contour>
    </TTGlyph>
    <TTGlyph name="paint_glyph_nested_identity_rotate_center" xMin="0" yMin="0" xMax="1000" yMax="1000">
      <contour>
        <pt x="0" y="0" on="1"/>
        <pt x="0" y="1000" on="1"/>
        <pt x="1000" y="1000" on="1"/>
        <pt x="1000" y="0" on="1"/>
      </contour>
    </TTGlyph>
    <TTGlyph name="paint_glyph_nested_identity_rotate_origin" xMin="0" yMin="0" xMax="1000" yMax="1000">
      <contour>
        <pt x="0" y="0" on="1"/>
        <pt x="0" y="1000" on="1"/>
        <pt x="1000" y="1000" on="1"/>
        <pt x="1000" y="0" on="1"/>
      </contour>
    </TTGlyph>
    <TTGlyph name="paint_glyph_nested_identity_translate" xMin="0" yMin="0" xMax="1000" yMax="1000">
      <contour>
        <pt x="0" y="0" on="1"/>
        <pt x="0" y="1000" on="1"/>
        <pt x="1000" y="1000" on="1"/>
        <pt x="1000" y="0" on="1"/>
      </contour>
    </TTGlyph>
    <TTGlyph name="paint_glyph_nested_rotate_center_identity" xMin="0" yMin="0" xMax="1000" yMax="1000">
      <contour>
        <pt x="0" y="0" on="1"/>
        <pt x="0" y="1000" on="1"/>
        <pt x="1000" y="1000" on="1"/>
        <pt x="1000" y="0" on="1"/>
      </contour>
    </TTGlyph>
    <TTGlyph name="paint_glyph_nested_rotate_center_rotate_center" xMin="0" yMin="0" xMax="1000" yMax="1000">
      <contour>
        <pt x="0" y="0" on="1"/>
        <pt x="0" y="1000" on="1"/>
        <pt x="1000" y="1000" on="1"/>
        <pt x="1000" y="0" on="1"/>
      </contour>
    </TTGlyph>
    <TTGlyph name="paint_glyph_nested_rotate_center_rotate_origin" xMin="0" yMin="0" xMax="1000" yMax="1000">
      <contour>
        <pt x="0" y="0" on="1"/>
        <pt x="0" y="1000" on="1"/>
        <pt x="1000" y="1000" on="1"/>
        <pt x="1000" y="0" on="1"/>
      </contour>
    </TTGlyph>
    <TTGlyph name="paint_glyph_nested_rotate_center_translate" xMin="0" yMin="0" xMax="1000" yMax="1000">
      <contour>
        <pt x="0" y="0" on="1"/>
        <pt x="0" y="1000" on="1"/>
        <pt x="1000" y="1000" on="1"/>
        <pt x="1000" y="0" on="1"/>
      </contour>
    </TTGlyph>
    <TTGlyph name="paint_glyph_nested_rotate_origin_identity" xMin="0" yMin="0" xMax="1000" yMax="1000">
      <contour>
        <pt x="0" y="0" on="1"/>
        <pt x="0" y="1000" on="1"/>
        <pt x="1000" y="1000" on="1"/>
        <pt x="1000" y="0" on="1"/>
      </contour>
    </TTGlyph>
    <TTGlyph name="paint_glyph_nested_rotate_origin_rotate_center" xMin="0" yMin="0" xMax="1000" yMax="1000">
      <contour>
        <pt x="0" y="0" on="1"/>
        <pt x="0" y="1000" on="1"/>
        <pt x="1000" y="1000" on="1"/>
        <pt x="1000" y="0" on="1"/>
      </contour>
    </TTGlyph>
    <TTGlyph name="paint_glyph_nested_rotate_origin_rotate_origin" xMin="0" yMin="0" xMax="1000" yMax="1000">
      <contour>
        <pt x="0" y="0" on="1"/>
        <pt x="0" y="1000" on="1"/>
        <pt x="1000" y="1000" on="1"/>
        <pt x="1000" y="0" on="1"/>
      </contour>
    </TTGlyph>
    <TTGlyph name="paint_glyph_nested_rotate_origin_translate" xMin="0" yMin="0" xMax="1000" yMax="1000">
      <contour>
        <pt x="0" y="0" on="1"/>
        <pt x="0" y="1000" on="1"/>
        <pt x="1000" y="1000" on="1"/>
        <pt x="1000" y="0" on="1"/>
      </contour>
    </TTGlyph>
    <TTGlyph name="paint_glyph_nested_translate_identity" xMin="0" yMin="0" xMax="1000" yMax="1000">
      <contour>
        <pt x="0" y="0" on="1"/>
        <pt x="0" y="1000" on="1"/>
        <pt x="1000" y="1000" on="1"/>
        <pt x="1000" y="0" on="1"/>
      </contour>
    </TTGlyph>
    <TTGlyph name="paint_glyph_nested_translate_rotate_center" xMin="0" yMin="0" xMax="1000" yMax="1000">
      <contour>
        <pt x="0" y="0" on="1"/>
        <pt x="0" y="1000" on="1"/>
        <pt x="1000" y="1000" on="1"/>
        <pt x="1000" y="0" on="1"/>
      </contour>
    </TTGlyph>
    <TTGlyph name="paint_glyph_nested_translate_rotate_origin" xMin="0" yMin="0" xMax="1000" yMax="1000">
      <contour>
        <pt x="0" y="0" on="1"/>
        <pt x="0" y="1000" on="1"/>
        <pt x="1000" y="1000" on="1"/>
        <pt x="1000" y="0" on="1"/>
      </contour>
    </TTGlyph>
    <TTGlyph name="paint_glyph_nested_translate_translate" xMin="0" yMin="0" xMax="1000" yMax="1000">
      <contour>
        <pt x="0" y="0" on="1"/>
        <pt x="0" y="1000" on="1"/>
        <pt x="1000" y="1000" on="1"/>
        <pt x="1000" y="0" on="1"/>
      </contour>
    </TTGlyph>
    <TTGlyph name="paintcolrglyph_cycle_first" xMin="0" yMin="0" xMax="1000" yMax="1000">
      <contour>
        <pt x="0" y="0" on="1"/>
        <pt x="0" y="1000" on="1"/>
        <pt x="1000" y="1000" on="1"/>
        <pt x="1000" y="0" on="1"/>
      </contour>
    </TTGlyph>
    <TTGlyph name="paintcolrglyph_cycle_second" xMin="0" yMin="0" xMax="1000" yMax="1000">
      <contour>
        <pt x="0" y="0" on="1"/>
        <pt x="0" y="1000" on="1"/>
        <pt x="1000" y="1000" on="1"/>
        <pt x="1000" y="0" on="1"/>
      </contour>
    </TTGlyph>
    <TTGlyph name="radial_contained_gradient_extend_mode_pad" xMin="0" yMin="0" xMax="1000" yMax="1000">
      <contour>
        <pt x="0" y="0" on="1"/>
        <pt x="0" y="1000" on="1"/>
        <pt x="1000" y="1000" on="1"/>
        <pt x="1000" y="0" on="1"/>
      </contour>
    </TTGlyph>
    <TTGlyph name="radial_contained_gradient_extend_mode_reflect" xMin="0" yMin="0" xMax="1000" yMax="1000">
      <contour>
        <pt x="0" y="0" on="1"/>
        <pt x="0" y="1000" on="1"/>
        <pt x="1000" y="1000" on="1"/>
        <pt x="1000" y="0" on="1"/>
      </contour>
    </TTGlyph>
    <TTGlyph name="radial_contained_gradient_extend_mode_repeat" xMin="0" yMin="0" xMax="1000" yMax="1000">
      <contour>
        <pt x="0" y="0" on="1"/>
        <pt x="0" y="1000" on="1"/>
        <pt x="1000" y="1000" on="1"/>
        <pt x="1000" y="0" on="1"/>
      </contour>
    </TTGlyph>
    <TTGlyph name="radial_horizontal_gradient_extend_mode_pad" xMin="0" yMin="0" xMax="1000" yMax="1000">
      <contour>
        <pt x="0" y="0" on="1"/>
        <pt x="0" y="1000" on="1"/>
        <pt x="1000" y="1000" on="1"/>
        <pt x="1000" y="0" on="1"/>
      </contour>
    </TTGlyph>
    <TTGlyph name="radial_horizontal_gradient_extend_mode_reflect" xMin="0" yMin="0" xMax="1000" yMax="1000">
      <contour>
        <pt x="0" y="0" on="1"/>
        <pt x="0" y="1000" on="1"/>
        <pt x="1000" y="1000" on="1"/>
        <pt x="1000" y="0" on="1"/>
      </contour>
    </TTGlyph>
    <TTGlyph name="radial_horizontal_gradient_extend_mode_repeat" xMin="0" yMin="0" xMax="1000" yMax="1000">
      <contour>
        <pt x="0" y="0" on="1"/>
        <pt x="0" y="1000" on="1"/>
        <pt x="1000" y="1000" on="1"/>
        <pt x="1000" y="0" on="1"/>
      </contour>
    </TTGlyph>
    <TTGlyph name="rotate_-10_center_1000_1000" xMin="0" yMin="0" xMax="1000" yMax="1000">
      <contour>
        <pt x="0" y="0" on="1"/>
        <pt x="0" y="1000" on="1"/>
        <pt x="1000" y="1000" on="1"/>
        <pt x="1000" y="0" on="1"/>
      </contour>
    </TTGlyph>
    <TTGlyph name="rotate_-15_center_500.0_500.0" xMin="0" yMin="0" xMax="1000" yMax="1000">
      <contour>
        <pt x="0" y="0" on="1"/>
        <pt x="0" y="1000" on="1"/>
        <pt x="1000" y="1000" on="1"/>
        <pt x="1000" y="0" on="1"/>
      </contour>
    </TTGlyph>
    <TTGlyph name="rotate_10_center_0_0" xMin="0" yMin="0" xMax="1000" yMax="1000">
      <contour>
        <pt x="0" y="0" on="1"/>
        <pt x="0" y="1000" on="1"/>
        <pt x="1000" y="1000" on="1"/>
        <pt x="1000" y="0" on="1"/>
      </contour>
    </TTGlyph>
    <TTGlyph name="rotate_25_center_500.0_500.0" xMin="0" yMin="0" xMax="1000" yMax="1000">
      <contour>
        <pt x="0" y="0" on="1"/>
        <pt x="0" y="1000" on="1"/>
        <pt x="1000" y="1000" on="1"/>
        <pt x="1000" y="0" on="1"/>
      </contour>
    </TTGlyph>
    <TTGlyph name="scale_0.5_1.5_center_0_0" xMin="0" yMin="0" xMax="1000" yMax="1000">
      <contour>
        <pt x="0" y="0" on="1"/>
        <pt x="0" y="1000" on="1"/>
        <pt x="1000" y="1000" on="1"/>
        <pt x="1000" y="0" on="1"/>
      </contour>
    </TTGlyph>
    <TTGlyph name="scale_0.5_1.5_center_1000_1000" xMin="0" yMin="0" xMax="1000" yMax="1000">
      <contour>
        <pt x="0" y="0" on="1"/>
        <pt x="0" y="1000" on="1"/>
        <pt x="1000" y="1000" on="1"/>
        <pt x="1000" y="0" on="1"/>
      </contour>
    </TTGlyph>
    <TTGlyph name="scale_0.5_1.5_center_500.0_500.0" xMin="0" yMin="0" xMax="1000" yMax="1000">
      <contour>
        <pt x="0" y="0" on="1"/>
        <pt x="0" y="1000" on="1"/>
        <pt x="1000" y="1000" on="1"/>
        <pt x="1000" y="0" on="1"/>
      </contour>
    </TTGlyph>
    <TTGlyph name="scale_1.5_1.5_center_0_0" xMin="0" yMin="0" xMax="1000" yMax="1000">
      <contour>
        <pt x="0" y="0" on="1"/>
        <pt x="0" y="1000" on="1"/>
        <pt x="1000" y="1000" on="1"/>
        <pt x="1000" y="0" on="1"/>
      </contour>
    </TTGlyph>
    <TTGlyph name="scale_1.5_1.5_center_1000_1000" xMin="0" yMin="0" xMax="1000" yMax="1000">
      <contour>
        <pt x="0" y="0" on="1"/>
        <pt x="0" y="1000" on="1"/>
        <pt x="1000" y="1000" on="1"/>
        <pt x="1000" y="0" on="1"/>
      </contour>
    </TTGlyph>
    <TTGlyph name="scale_1.5_1.5_center_500.0_500.0" xMin="0" yMin="0" xMax="1000" yMax="1000">
      <contour>
        <pt x="0" y="0" on="1"/>
        <pt x="0" y="1000" on="1"/>
        <pt x="1000" y="1000" on="1"/>
        <pt x="1000" y="0" on="1"/>
      </contour>
    </TTGlyph>
    <TTGlyph name="skew_-10_20_center_1000_1000" xMin="0" yMin="0" xMax="1000" yMax="1000">
      <contour>
        <pt x="0" y="0" on="1"/>
        <pt x="0" y="1000" on="1"/>
        <pt x="1000" y="1000" on="1"/>
        <pt x="1000" y="0" on="1"/>
      </contour>
    </TTGlyph>
    <TTGlyph name="skew_-10_20_center_500.0_500.0" xMin="0" yMin="0" xMax="1000" yMax="1000">
      <contour>
        <pt x="0" y="0" on="1"/>
        <pt x="0" y="1000" on="1"/>
        <pt x="1000" y="1000" on="1"/>
        <pt x="1000" y="0" on="1"/>
      </contour>
    </TTGlyph>
    <TTGlyph name="skew_0_15_center_0_0" xMin="0" yMin="0" xMax="1000" yMax="1000">
      <contour>
        <pt x="0" y="0" on="1"/>
        <pt x="0" y="1000" on="1"/>
        <pt x="1000" y="1000" on="1"/>
        <pt x="1000" y="0" on="1"/>
      </contour>
    </TTGlyph>
    <TTGlyph name="skew_0_15_center_500.0_500.0" xMin="0" yMin="0" xMax="1000" yMax="1000">
      <contour>
        <pt x="0" y="0" on="1"/>
        <pt x="0" y="1000" on="1"/>
        <pt x="1000" y="1000" on="1"/>
        <pt x="1000" y="0" on="1"/>
      </contour>
    </TTGlyph>
    <TTGlyph name="skew_25_0_center_0_0" xMin="0" yMin="0" xMax="1000" yMax="1000">
      <contour>
        <pt x="0" y="0" on="1"/>
        <pt x="0" y="1000" on="1"/>
        <pt x="1000" y="1000" on="1"/>
        <pt x="1000" y="0" on="1"/>
      </contour>
    </TTGlyph>
    <TTGlyph name="skew_25_0_center_500.0_500.0" xMin="0" yMin="0" xMax="1000" yMax="1000">
      <contour>
        <pt x="0" y="0" on="1"/>
        <pt x="0" y="1000" on="1"/>
        <pt x="1000" y="1000" on="1"/>
        <pt x="1000" y="0" on="1"/>
      </contour>
    </TTGlyph>
    <TTGlyph name="solid_colorline_alpha" xMin="0" yMin="0" xMax="1000" yMax="1000">
      <contour>
        <pt x="0" y="0" on="1"/>
        <pt x="0" y="1000" on="1"/>
        <pt x="1000" y="1000" on="1"/>
        <pt x="1000" y="0" on="1"/>
      </contour>
    </TTGlyph>
    <TTGlyph name="sweep_-180_540_pad_narrow" xMin="0" yMin="0" xMax="1000" yMax="1000">
      <contour>
        <pt x="0" y="0" on="1"/>
        <pt x="0" y="1000" on="1"/>
        <pt x="1000" y="1000" on="1"/>
        <pt x="1000" y="0" on="1"/>
      </contour>
    </TTGlyph>
    <TTGlyph name="sweep_-180_540_pad_wide" xMin="0" yMin="0" xMax="1000" yMax="1000">
      <contour>
        <pt x="0" y="0" on="1"/>
        <pt x="0" y="1000" on="1"/>
        <pt x="1000" y="1000" on="1"/>
        <pt x="1000" y="0" on="1"/>
      </contour>
    </TTGlyph>
    <TTGlyph name="sweep_-180_540_reflect_narrow" xMin="0" yMin="0" xMax="1000" yMax="1000">
      <contour>
        <pt x="0" y="0" on="1"/>
        <pt x="0" y="1000" on="1"/>
        <pt x="1000" y="1000" on="1"/>
        <pt x="1000" y="0" on="1"/>
      </contour>
    </TTGlyph>
    <TTGlyph name="sweep_-180_540_reflect_wide" xMin="0" yMin="0" xMax="1000" yMax="1000">
      <contour>
        <pt x="0" y="0" on="1"/>
        <pt x="0" y="1000" on="1"/>
        <pt x="1000" y="1000" on="1"/>
        <pt x="1000" y="0" on="1"/>
      </contour>
    </TTGlyph>
    <TTGlyph name="sweep_-180_540_repeat_narrow" xMin="0" yMin="0" xMax="1000" yMax="1000">
      <contour>
        <pt x="0" y="0" on="1"/>
        <pt x="0" y="1000" on="1"/>
        <pt x="1000" y="1000" on="1"/>
        <pt x="1000" y="0" on="1"/>
      </contour>
    </TTGlyph>
    <TTGlyph name="sweep_-180_540_repeat_wide" xMin="0" yMin="0" xMax="1000" yMax="1000">
      <contour>
        <pt x="0" y="0" on="1"/>
        <pt x="0" y="1000" on="1"/>
        <pt x="1000" y="1000" on="1"/>
        <pt x="1000" y="0" on="1"/>
      </contour>
    </TTGlyph>
    <TTGlyph name="sweep_-45_45_pad_narrow" xMin="0" yMin="0" xMax="1000" yMax="1000">
      <contour>
        <pt x="0" y="0" on="1"/>
        <pt x="0" y="1000" on="1"/>
        <pt x="1000" y="1000" on="1"/>
        <pt x="1000" y="0" on="1"/>
      </contour>
    </TTGlyph>
    <TTGlyph name="sweep_-45_45_pad_wide" xMin="0" yMin="0" xMax="1000" yMax="1000">
      <contour>
        <pt x="0" y="0" on="1"/>
        <pt x="0" y="1000" on="1"/>
        <pt x="1000" y="1000" on="1"/>
        <pt x="1000" y="0" on="1"/>
      </contour>
    </TTGlyph>
    <TTGlyph name="sweep_-45_45_reflect_narrow" xMin="0" yMin="0" xMax="1000" yMax="1000">
      <contour>
        <pt x="0" y="0" on="1"/>
        <pt x="0" y="1000" on="1"/>
        <pt x="1000" y="1000" on="1"/>
        <pt x="1000" y="0" on="1"/>
      </contour>
    </TTGlyph>
    <TTGlyph name="sweep_-45_45_reflect_wide" xMin="0" yMin="0" xMax="1000" yMax="1000">
      <contour>
        <pt x="0" y="0" on="1"/>
        <pt x="0" y="1000" on="1"/>
        <pt x="1000" y="1000" on="1"/>
        <pt x="1000" y="0" on="1"/>
      </contour>
    </TTGlyph>
    <TTGlyph name="sweep_-45_45_repeat_narrow" xMin="0" yMin="0" xMax="1000" yMax="1000">
      <contour>
        <pt x="0" y="0" on="1"/>
        <pt x="0" y="1000" on="1"/>
        <pt x="1000" y="1000" on="1"/>
        <pt x="1000" y="0" on="1"/>
      </contour>
    </TTGlyph>
    <TTGlyph name="sweep_-45_45_repeat_wide" xMin="0" yMin="0" xMax="1000" yMax="1000">
      <contour>
        <pt x="0" y="0" on="1"/>
        <pt x="0" y="1000" on="1"/>
        <pt x="1000" y="1000" on="1"/>
        <pt x="1000" y="0" on="1"/>
      </contour>
    </TTGlyph>
    <TTGlyph name="sweep_0_360_pad_narrow" xMin="0" yMin="0" xMax="1000" yMax="1000">
      <contour>
        <pt x="0" y="0" on="1"/>
        <pt x="0" y="1000" on="1"/>
        <pt x="1000" y="1000" on="1"/>
        <pt x="1000" y="0" on="1"/>
      </contour>
    </TTGlyph>
    <TTGlyph name="sweep_0_360_pad_wide" xMin="0" yMin="0" xMax="1000" yMax="1000">
      <contour>
        <pt x="0" y="0" on="1"/>
        <pt x="0" y="1000" on="1"/>
        <pt x="1000" y="1000" on="1"/>
        <pt x="1000" y="0" on="1"/>
      </contour>
    </TTGlyph>
    <TTGlyph name="sweep_0_360_reflect_narrow" xMin="0" yMin="0" xMax="1000" yMax="1000">
      <contour>
        <pt x="0" y="0" on="1"/>
        <pt x="0" y="1000" on="1"/>
        <pt x="1000" y="1000" on="1"/>
        <pt x="1000" y="0" on="1"/>
      </contour>
    </TTGlyph>
    <TTGlyph name="sweep_0_360_reflect_wide" xMin="0" yMin="0" xMax="1000" yMax="1000">
      <contour>
        <pt x="0" y="0" on="1"/>
        <pt x="0" y="1000" on="1"/>
        <pt x="1000" y="1000" on="1"/>
        <pt x="1000" y="0" on="1"/>
      </contour>
    </TTGlyph>
    <TTGlyph name="sweep_0_360_repeat_narrow" xMin="0" yMin="0" xMax="1000" yMax="1000">
      <contour>
        <pt x="0" y="0" on="1"/>
        <pt x="0" y="1000" on="1"/>
        <pt x="1000" y="1000" on="1"/>
        <pt x="1000" y="0" on="1"/>
      </contour>
    </TTGlyph>
    <TTGlyph name="sweep_0_360_repeat_wide" xMin="0" yMin="0" xMax="1000" yMax="1000">
      <contour>
        <pt x="0" y="0" on="1"/>
        <pt x="0" y="1000" on="1"/>
        <pt x="1000" y="1000" on="1"/>
        <pt x="1000" y="0" on="1"/>
      </contour>
    </TTGlyph>
    <TTGlyph name="sweep_0_90_pad_narrow" xMin="0" yMin="0" xMax="1000" yMax="1000">
      <contour>
        <pt x="0" y="0" on="1"/>
        <pt x="0" y="1000" on="1"/>
        <pt x="1000" y="1000" on="1"/>
        <pt x="1000" y="0" on="1"/>
      </contour>
    </TTGlyph>
    <TTGlyph name="sweep_0_90_pad_wide" xMin="0" yMin="0" xMax="1000" yMax="1000">
      <contour>
        <pt x="0" y="0" on="1"/>
        <pt x="0" y="1000" on="1"/>
        <pt x="1000" y="1000" on="1"/>
        <pt x="1000" y="0" on="1"/>
      </contour>
    </TTGlyph>
    <TTGlyph name="sweep_0_90_reflect_narrow" xMin="0" yMin="0" xMax="1000" yMax="1000">
      <contour>
        <pt x="0" y="0" on="1"/>
        <pt x="0" y="1000" on="1"/>
        <pt x="1000" y="1000" on="1"/>
        <pt x="1000" y="0" on="1"/>
      </contour>
    </TTGlyph>
    <TTGlyph name="sweep_0_90_reflect_wide" xMin="0" yMin="0" xMax="1000" yMax="1000">
      <contour>
        <pt x="0" y="0" on="1"/>
        <pt x="0" y="1000" on="1"/>
        <pt x="1000" y="1000" on="1"/>
        <pt x="1000" y="0" on="1"/>
      </contour>
    </TTGlyph>
    <TTGlyph name="sweep_0_90_repeat_narrow" xMin="0" yMin="0" xMax="1000" yMax="1000">
      <contour>
        <pt x="0" y="0" on="1"/>
        <pt x="0" y="1000" on="1"/>
        <pt x="1000" y="1000" on="1"/>
        <pt x="1000" y="0" on="1"/>
      </contour>
    </TTGlyph>
    <TTGlyph name="sweep_0_90_repeat_wide" xMin="0" yMin="0" xMax="1000" yMax="1000">
      <contour>
        <pt x="0" y="0" on="1"/>
        <pt x="0" y="1000" on="1"/>
        <pt x="1000" y="1000" on="1"/>
        <pt x="1000" y="0" on="1"/>
      </contour>
    </TTGlyph>
    <TTGlyph name="sweep_247.5_292.5_pad_narrow" xMin="0" yMin="0" xMax="1000" yMax="1000">
      <contour>
        <pt x="0" y="0" on="1"/>
        <pt x="0" y="1000" on="1"/>
        <pt x="1000" y="1000" on="1"/>
        <pt x="1000" y="0" on="1"/>
      </contour>
    </TTGlyph>
    <TTGlyph name="sweep_247.5_292.5_pad_wide" xMin="0" yMin="0" xMax="1000" yMax="1000">
      <contour>
        <pt x="0" y="0" on="1"/>
        <pt x="0" y="1000" on="1"/>
        <pt x="1000" y="1000" on="1"/>
        <pt x="1000" y="0" on="1"/>
      </contour>
    </TTGlyph>
    <TTGlyph name="sweep_247.5_292.5_reflect_narrow" xMin="0" yMin="0" xMax="1000" yMax="1000">
      <contour>
        <pt x="0" y="0" on="1"/>
        <pt x="0" y="1000" on="1"/>
        <pt x="1000" y="1000" on="1"/>
        <pt x="1000" y="0" on="1"/>
      </contour>
    </TTGlyph>
    <TTGlyph name="sweep_247.5_292.5_reflect_wide" xMin="0" yMin="0" xMax="1000" yMax="1000">
      <contour>
        <pt x="0" y="0" on="1"/>
        <pt x="0" y="1000" on="1"/>
        <pt x="1000" y="1000" on="1"/>
        <pt x="1000" y="0" on="1"/>
      </contour>
    </TTGlyph>
    <TTGlyph name="sweep_247.5_292.5_repeat_narrow" xMin="0" yMin="0" xMax="1000" yMax="1000">
      <contour>
        <pt x="0" y="0" on="1"/>
        <pt x="0" y="1000" on="1"/>
        <pt x="1000" y="1000" on="1"/>
        <pt x="1000" y="0" on="1"/>
      </contour>
    </TTGlyph>
    <TTGlyph name="sweep_247.5_292.5_repeat_wide" xMin="0" yMin="0" xMax="1000" yMax="1000">
      <contour>
        <pt x="0" y="0" on="1"/>
        <pt x="0" y="1000" on="1"/>
        <pt x="1000" y="1000" on="1"/>
        <pt x="1000" y="0" on="1"/>
      </contour>
    </TTGlyph>
    <TTGlyph name="sweep_270_440_pad_narrow" xMin="0" yMin="0" xMax="1000" yMax="1000">
      <contour>
        <pt x="0" y="0" on="1"/>
        <pt x="0" y="1000" on="1"/>
        <pt x="1000" y="1000" on="1"/>
        <pt x="1000" y="0" on="1"/>
      </contour>
    </TTGlyph>
    <TTGlyph name="sweep_270_440_pad_wide" xMin="0" yMin="0" xMax="1000" yMax="1000">
      <contour>
        <pt x="0" y="0" on="1"/>
        <pt x="0" y="1000" on="1"/>
        <pt x="1000" y="1000" on="1"/>
        <pt x="1000" y="0" on="1"/>
      </contour>
    </TTGlyph>
    <TTGlyph name="sweep_270_440_reflect_narrow" xMin="0" yMin="0" xMax="1000" yMax="1000">
      <contour>
        <pt x="0" y="0" on="1"/>
        <pt x="0" y="1000" on="1"/>
        <pt x="1000" y="1000" on="1"/>
        <pt x="1000" y="0" on="1"/>
      </contour>
    </TTGlyph>
    <TTGlyph name="sweep_270_440_reflect_wide" xMin="0" yMin="0" xMax="1000" yMax="1000">
      <contour>
        <pt x="0" y="0" on="1"/>
        <pt x="0" y="1000" on="1"/>
        <pt x="1000" y="1000" on="1"/>
        <pt x="1000" y="0" on="1"/>
      </contour>
    </TTGlyph>
    <TTGlyph name="sweep_270_440_repeat_narrow" xMin="0" yMin="0" xMax="1000" yMax="1000">
      <contour>
        <pt x="0" y="0" on="1"/>
        <pt x="0" y="1000" on="1"/>
        <pt x="1000" y="1000" on="1"/>
        <pt x="1000" y="0" on="1"/>
      </contour>
    </TTGlyph>
    <TTGlyph name="sweep_270_440_repeat_wide" xMin="0" yMin="0" xMax="1000" yMax="1000">
      <contour>
        <pt x="0" y="0" on="1"/>
        <pt x="0" y="1000" on="1"/>
        <pt x="1000" y="1000" on="1"/>
        <pt x="1000" y="0" on="1"/>
      </contour>
    </TTGlyph>
    <TTGlyph name="sweep_440_270_pad_narrow" xMin="0" yMin="0" xMax="1000" yMax="1000">
      <contour>
        <pt x="0" y="0" on="1"/>
        <pt x="0" y="1000" on="1"/>
        <pt x="1000" y="1000" on="1"/>
        <pt x="1000" y="0" on="1"/>
      </contour>
    </TTGlyph>
    <TTGlyph name="sweep_440_270_pad_wide" xMin="0" yMin="0" xMax="1000" yMax="1000">
      <contour>
        <pt x="0" y="0" on="1"/>
        <pt x="0" y="1000" on="1"/>
        <pt x="1000" y="1000" on="1"/>
        <pt x="1000" y="0" on="1"/>
      </contour>
    </TTGlyph>
    <TTGlyph name="sweep_440_270_reflect_narrow" xMin="0" yMin="0" xMax="1000" yMax="1000">
      <contour>
        <pt x="0" y="0" on="1"/>
        <pt x="0" y="1000" on="1"/>
        <pt x="1000" y="1000" on="1"/>
        <pt x="1000" y="0" on="1"/>
      </contour>
    </TTGlyph>
    <TTGlyph name="sweep_440_270_reflect_wide" xMin="0" yMin="0" xMax="1000" yMax="1000">
      <contour>
        <pt x="0" y="0" on="1"/>
        <pt x="0" y="1000" on="1"/>
        <pt x="1000" y="1000" on="1"/>
        <pt x="1000" y="0" on="1"/>
      </contour>
    </TTGlyph>
    <TTGlyph name="sweep_440_270_repeat_narrow" xMin="0" yMin="0" xMax="1000" yMax="1000">
      <contour>
        <pt x="0" y="0" on="1"/>
        <pt x="0" y="1000" on="1"/>
        <pt x="1000" y="1000" on="1"/>
        <pt x="1000" y="0" on="1"/>
      </contour>
    </TTGlyph>
    <TTGlyph name="sweep_440_270_repeat_wide" xMin="0" yMin="0" xMax="1000" yMax="1000">
      <contour>
        <pt x="0" y="0" on="1"/>
        <pt x="0" y="1000" on="1"/>
        <pt x="1000" y="1000" on="1"/>
        <pt x="1000" y="0" on="1"/>
      </contour>
    </TTGlyph>
    <TTGlyph name="sweep_45_-45_pad_narrow" xMin="0" yMin="0" xMax="1000" yMax="1000">
      <contour>
        <pt x="0" y="0" on="1"/>
        <pt x="0" y="1000" on="1"/>
        <pt x="1000" y="1000" on="1"/>
        <pt x="1000" y="0" on="1"/>
      </contour>
    </TTGlyph>
    <TTGlyph name="sweep_45_-45_pad_wide" xMin="0" yMin="0" xMax="1000" yMax="1000">
      <contour>
        <pt x="0" y="0" on="1"/>
        <pt x="0" y="1000" on="1"/>
        <pt x="1000" y="1000" on="1"/>
        <pt x="1000" y="0" on="1"/>
      </contour>
    </TTGlyph>
    <TTGlyph name="sweep_45_-45_reflect_narrow" xMin="0" yMin="0" xMax="1000" yMax="1000">
      <contour>
        <pt x="0" y="0" on="1"/>
        <pt x="0" y="1000" on="1"/>
        <pt x="1000" y="1000" on="1"/>
        <pt x="1000" y="0" on="1"/>
      </contour>
    </TTGlyph>
    <TTGlyph name="sweep_45_-45_reflect_wide" xMin="0" yMin="0" xMax="1000" yMax="1000">
      <contour>
        <pt x="0" y="0" on="1"/>
        <pt x="0" y="1000" on="1"/>
        <pt x="1000" y="1000" on="1"/>
        <pt x="1000" y="0" on="1"/>
      </contour>
    </TTGlyph>
    <TTGlyph name="sweep_45_-45_repeat_narrow" xMin="0" yMin="0" xMax="1000" yMax="1000">
      <contour>
        <pt x="0" y="0" on="1"/>
        <pt x="0" y="1000" on="1"/>
        <pt x="1000" y="1000" on="1"/>
        <pt x="1000" y="0" on="1"/>
      </contour>
    </TTGlyph>
    <TTGlyph name="sweep_45_-45_repeat_wide" xMin="0" yMin="0" xMax="1000" yMax="1000">
      <contour>
        <pt x="0" y="0" on="1"/>
        <pt x="0" y="1000" on="1"/>
        <pt x="1000" y="1000" on="1"/>
        <pt x="1000" y="0" on="1"/>
      </contour>
    </TTGlyph>
    <TTGlyph name="sweep_45_90_pad_narrow" xMin="0" yMin="0" xMax="1000" yMax="1000">
      <contour>
        <pt x="0" y="0" on="1"/>
        <pt x="0" y="1000" on="1"/>
        <pt x="1000" y="1000" on="1"/>
        <pt x="1000" y="0" on="1"/>
      </contour>
    </TTGlyph>
    <TTGlyph name="sweep_45_90_pad_wide" xMin="0" yMin="0" xMax="1000" yMax="1000">
      <contour>
        <pt x="0" y="0" on="1"/>
        <pt x="0" y="1000" on="1"/>
        <pt x="1000" y="1000" on="1"/>
        <pt x="1000" y="0" on="1"/>
      </contour>
    </TTGlyph>
    <TTGlyph name="sweep_45_90_reflect_narrow" xMin="0" yMin="0" xMax="1000" yMax="1000">
      <contour>
        <pt x="0" y="0" on="1"/>
        <pt x="0" y="1000" on="1"/>
        <pt x="1000" y="1000" on="1"/>
        <pt x="1000" y="0" on="1"/>
      </contour>
    </TTGlyph>
    <TTGlyph name="sweep_45_90_reflect_wide" xMin="0" yMin="0" xMax="1000" yMax="1000">
      <contour>
        <pt x="0" y="0" on="1"/>
        <pt x="0" y="1000" on="1"/>
        <pt x="1000" y="1000" on="1"/>
        <pt x="1000" y="0" on="1"/>
      </contour>
    </TTGlyph>
    <TTGlyph name="sweep_45_90_repeat_narrow" xMin="0" yMin="0" xMax="1000" yMax="1000">
      <contour>
        <pt x="0" y="0" on="1"/>
        <pt x="0" y="1000" on="1"/>
        <pt x="1000" y="1000" on="1"/>
        <pt x="1000" y="0" on="1"/>
      </contour>
    </TTGlyph>
    <TTGlyph name="sweep_45_90_repeat_wide" xMin="0" yMin="0" xMax="1000" yMax="1000">
      <contour>
        <pt x="0" y="0" on="1"/>
        <pt x="0" y="1000" on="1"/>
        <pt x="1000" y="1000" on="1"/>
        <pt x="1000" y="0" on="1"/>
      </contour>
    </TTGlyph>
    <TTGlyph name="sweep_60_300_pad_narrow" xMin="0" yMin="0" xMax="1000" yMax="1000">
      <contour>
        <pt x="0" y="0" on="1"/>
        <pt x="0" y="1000" on="1"/>
        <pt x="1000" y="1000" on="1"/>
        <pt x="1000" y="0" on="1"/>
      </contour>
    </TTGlyph>
    <TTGlyph name="sweep_60_300_pad_wide" xMin="0" yMin="0" xMax="1000" yMax="1000">
      <contour>
        <pt x="0" y="0" on="1"/>
        <pt x="0" y="1000" on="1"/>
        <pt x="1000" y="1000" on="1"/>
        <pt x="1000" y="0" on="1"/>
      </contour>
    </TTGlyph>
    <TTGlyph name="sweep_60_300_reflect_narrow" xMin="0" yMin="0" xMax="1000" yMax="1000">
      <contour>
        <pt x="0" y="0" on="1"/>
        <pt x="0" y="1000" on="1"/>
        <pt x="1000" y="1000" on="1"/>
        <pt x="1000" y="0" on="1"/>
      </contour>
    </TTGlyph>
    <TTGlyph name="sweep_60_300_reflect_wide" xMin="0" yMin="0" xMax="1000" yMax="1000">
      <contour>
        <pt x="0" y="0" on="1"/>
        <pt x="0" y="1000" on="1"/>
        <pt x="1000" y="1000" on="1"/>
        <pt x="1000" y="0" on="1"/>
      </contour>
    </TTGlyph>
    <TTGlyph name="sweep_60_300_repeat_narrow" xMin="0" yMin="0" xMax="1000" yMax="1000">
      <contour>
        <pt x="0" y="0" on="1"/>
        <pt x="0" y="1000" on="1"/>
        <pt x="1000" y="1000" on="1"/>
        <pt x="1000" y="0" on="1"/>
      </contour>
    </TTGlyph>
    <TTGlyph name="sweep_60_300_repeat_wide" xMin="0" yMin="0" xMax="1000" yMax="1000">
      <contour>
        <pt x="0" y="0" on="1"/>
        <pt x="0" y="1000" on="1"/>
        <pt x="1000" y="1000" on="1"/>
        <pt x="1000" y="0" on="1"/>
      </contour>
    </TTGlyph>
    <TTGlyph name="sweep_90_0_pad_narrow" xMin="0" yMin="0" xMax="1000" yMax="1000">
      <contour>
        <pt x="0" y="0" on="1"/>
        <pt x="0" y="1000" on="1"/>
        <pt x="1000" y="1000" on="1"/>
        <pt x="1000" y="0" on="1"/>
      </contour>
    </TTGlyph>
    <TTGlyph name="sweep_90_0_pad_wide" xMin="0" yMin="0" xMax="1000" yMax="1000">
      <contour>
        <pt x="0" y="0" on="1"/>
        <pt x="0" y="1000" on="1"/>
        <pt x="1000" y="1000" on="1"/>
        <pt x="1000" y="0" on="1"/>
      </contour>
    </TTGlyph>
    <TTGlyph name="sweep_90_0_reflect_narrow" xMin="0" yMin="0" xMax="1000" yMax="1000">
      <contour>
        <pt x="0" y="0" on="1"/>
        <pt x="0" y="1000" on="1"/>
        <pt x="1000" y="1000" on="1"/>
        <pt x="1000" y="0" on="1"/>
      </contour>
    </TTGlyph>
    <TTGlyph name="sweep_90_0_reflect_wide" xMin="0" yMin="0" xMax="1000" yMax="1000">
      <contour>
        <pt x="0" y="0" on="1"/>
        <pt x="0" y="1000" on="1"/>
        <pt x="1000" y="1000" on="1"/>
        <pt x="1000" y="0" on="1"/>
      </contour>
    </TTGlyph>
    <TTGlyph name="sweep_90_0_repeat_narrow" xMin="0" yMin="0" xMax="1000" yMax="1000">
      <contour>
        <pt x="0" y="0" on="1"/>
        <pt x="0" y="1000" on="1"/>
        <pt x="1000" y="1000" on="1"/>
        <pt x="1000" y="0" on="1"/>
      </contour>
    </TTGlyph>
    <TTGlyph name="sweep_90_0_repeat_wide" xMin="0" yMin="0" xMax="1000" yMax="1000">
      <contour>
        <pt x="0" y="0" on="1"/>
        <pt x="0" y="1000" on="1"/>
        <pt x="1000" y="1000" on="1"/>
        <pt x="1000" y="0" on="1"/>
      </contour>
    </TTGlyph>
    <TTGlyph name="sweep_90_45_pad_narrow" xMin="0" yMin="0" xMax="1000" yMax="1000">
      <contour>
        <pt x="0" y="0" on="1"/>
        <pt x="0" y="1000" on="1"/>
        <pt x="1000" y="1000" on="1"/>
        <pt x="1000" y="0" on="1"/>
      </contour>
    </TTGlyph>
    <TTGlyph name="sweep_90_45_pad_wide" xMin="0" yMin="0" xMax="1000" yMax="1000">
      <contour>
        <pt x="0" y="0" on="1"/>
        <pt x="0" y="1000" on="1"/>
        <pt x="1000" y="1000" on="1"/>
        <pt x="1000" y="0" on="1"/>
      </contour>
    </TTGlyph>
    <TTGlyph name="sweep_90_45_reflect_narrow" xMin="0" yMin="0" xMax="1000" yMax="1000">
      <contour>
        <pt x="0" y="0" on="1"/>
        <pt x="0" y="1000" on="1"/>
        <pt x="1000" y="1000" on="1"/>
        <pt x="1000" y="0" on="1"/>
      </contour>
    </TTGlyph>
    <TTGlyph name="sweep_90_45_reflect_wide" xMin="0" yMin="0" xMax="1000" yMax="1000">
      <contour>
        <pt x="0" y="0" on="1"/>
        <pt x="0" y="1000" on="1"/>
        <pt x="1000" y="1000" on="1"/>
        <pt x="1000" y="0" on="1"/>
      </contour>
    </TTGlyph>
    <TTGlyph name="sweep_90_45_repeat_narrow" xMin="0" yMin="0" xMax="1000" yMax="1000">
      <contour>
        <pt x="0" y="0" on="1"/>
        <pt x="0" y="1000" on="1"/>
        <pt x="1000" y="1000" on="1"/>
        <pt x="1000" y="0" on="1"/>
      </contour>
    </TTGlyph>
    <TTGlyph name="sweep_90_45_repeat_wide" xMin="0" yMin="0" xMax="1000" yMax="1000">
      <contour>
        <pt x="0" y="0" on="1"/>
        <pt x="0" y="1000" on="1"/>
        <pt x="1000" y="1000" on="1"/>
        <pt x="1000" y="0" on="1"/>
      </contour>
    </TTGlyph>
    <TTGlyph name="sweep_coincident_angles_forward_blue_red_pad" xMin="0" yMin="0" xMax="1000" yMax="1000">
      <contour>
        <pt x="0" y="0" on="1"/>
        <pt x="0" y="1000" on="1"/>
        <pt x="1000" y="1000" on="1"/>
        <pt x="1000" y="0" on="1"/>
      </contour>
    </TTGlyph>
    <TTGlyph name="sweep_coincident_angles_forward_blue_red_reflect" xMin="0" yMin="0" xMax="1000" yMax="1000">
      <contour>
        <pt x="0" y="0" on="1"/>
        <pt x="0" y="1000" on="1"/>
        <pt x="1000" y="1000" on="1"/>
        <pt x="1000" y="0" on="1"/>
      </contour>
    </TTGlyph>
    <TTGlyph name="sweep_coincident_angles_forward_blue_red_repeat" xMin="0" yMin="0" xMax="1000" yMax="1000">
      <contour>
        <pt x="0" y="0" on="1"/>
        <pt x="0" y="1000" on="1"/>
        <pt x="1000" y="1000" on="1"/>
        <pt x="1000" y="0" on="1"/>
      </contour>
    </TTGlyph>
    <TTGlyph name="sweep_coincident_angles_forward_linen_gray_pad" xMin="0" yMin="0" xMax="1000" yMax="1000">
      <contour>
        <pt x="0" y="0" on="1"/>
        <pt x="0" y="1000" on="1"/>
        <pt x="1000" y="1000" on="1"/>
        <pt x="1000" y="0" on="1"/>
      </contour>
    </TTGlyph>
    <TTGlyph name="sweep_coincident_angles_forward_linen_gray_reflect" xMin="0" yMin="0" xMax="1000" yMax="1000">
      <contour>
        <pt x="0" y="0" on="1"/>
        <pt x="0" y="1000" on="1"/>
        <pt x="1000" y="1000" on="1"/>
        <pt x="1000" y="0" on="1"/>
      </contour>
    </TTGlyph>
    <TTGlyph name="sweep_coincident_angles_forward_linen_gray_repeat" xMin="0" yMin="0" xMax="1000" yMax="1000">
      <contour>
        <pt x="0" y="0" on="1"/>
        <pt x="0" y="1000" on="1"/>
        <pt x="1000" y="1000" on="1"/>
        <pt x="1000" y="0" on="1"/>
      </contour>
    </TTGlyph>
    <TTGlyph name="sweep_coincident_angles_reverse_blue_red_pad" xMin="0" yMin="0" xMax="1000" yMax="1000">
      <contour>
        <pt x="0" y="0" on="1"/>
        <pt x="0" y="1000" on="1"/>
        <pt x="1000" y="1000" on="1"/>
        <pt x="1000" y="0" on="1"/>
      </contour>
    </TTGlyph>
    <TTGlyph name="sweep_coincident_angles_reverse_blue_red_reflect" xMin="0" yMin="0" xMax="1000" yMax="1000">
      <contour>
        <pt x="0" y="0" on="1"/>
        <pt x="0" y="1000" on="1"/>
        <pt x="1000" y="1000" on="1"/>
        <pt x="1000" y="0" on="1"/>
      </contour>
    </TTGlyph>
    <TTGlyph name="sweep_coincident_angles_reverse_blue_red_repeat" xMin="0" yMin="0" xMax="1000" yMax="1000">
      <contour>
        <pt x="0" y="0" on="1"/>
        <pt x="0" y="1000" on="1"/>
        <pt x="1000" y="1000" on="1"/>
        <pt x="1000" y="0" on="1"/>
      </contour>
    </TTGlyph>
    <TTGlyph name="sweep_coincident_angles_reverse_linen_gray_pad" xMin="0" yMin="0" xMax="1000" yMax="1000">
      <contour>
        <pt x="0" y="0" on="1"/>
        <pt x="0" y="1000" on="1"/>
        <pt x="1000" y="1000" on="1"/>
        <pt x="1000" y="0" on="1"/>
      </contour>
    </TTGlyph>
    <TTGlyph name="sweep_coincident_angles_reverse_linen_gray_reflect" xMin="0" yMin="0" xMax="1000" yMax="1000">
      <contour>
        <pt x="0" y="0" on="1"/>
        <pt x="0" y="1000" on="1"/>
        <pt x="1000" y="1000" on="1"/>
        <pt x="1000" y="0" on="1"/>
      </contour>
    </TTGlyph>
    <TTGlyph name="sweep_coincident_angles_reverse_linen_gray_repeat" xMin="0" yMin="0" xMax="1000" yMax="1000">
      <contour>
        <pt x="0" y="0" on="1"/>
        <pt x="0" y="1000" on="1"/>
        <pt x="1000" y="1000" on="1"/>
        <pt x="1000" y="0" on="1"/>
      </contour>
    </TTGlyph>
    <TTGlyph name="sweep_coincident_stops_forward_blue_red_pad" xMin="0" yMin="0" xMax="1000" yMax="1000">
      <contour>
        <pt x="0" y="0" on="1"/>
        <pt x="0" y="1000" on="1"/>
        <pt x="1000" y="1000" on="1"/>
        <pt x="1000" y="0" on="1"/>
      </contour>
    </TTGlyph>
    <TTGlyph name="sweep_coincident_stops_forward_blue_red_reflect" xMin="0" yMin="0" xMax="1000" yMax="1000">
      <contour>
        <pt x="0" y="0" on="1"/>
        <pt x="0" y="1000" on="1"/>
        <pt x="1000" y="1000" on="1"/>
        <pt x="1000" y="0" on="1"/>
      </contour>
    </TTGlyph>
    <TTGlyph name="sweep_coincident_stops_forward_blue_red_repeat" xMin="0" yMin="0" xMax="1000" yMax="1000">
      <contour>
        <pt x="0" y="0" on="1"/>
        <pt x="0" y="1000" on="1"/>
        <pt x="1000" y="1000" on="1"/>
        <pt x="1000" y="0" on="1"/>
      </contour>
    </TTGlyph>
    <TTGlyph name="sweep_coincident_stops_forward_linen_gray_pad" xMin="0" yMin="0" xMax="1000" yMax="1000">
      <contour>
        <pt x="0" y="0" on="1"/>
        <pt x="0" y="1000" on="1"/>
        <pt x="1000" y="1000" on="1"/>
        <pt x="1000" y="0" on="1"/>
      </contour>
    </TTGlyph>
    <TTGlyph name="sweep_coincident_stops_forward_linen_gray_reflect" xMin="0" yMin="0" xMax="1000" yMax="1000">
      <contour>
        <pt x="0" y="0" on="1"/>
        <pt x="0" y="1000" on="1"/>
        <pt x="1000" y="1000" on="1"/>
        <pt x="1000" y="0" on="1"/>
      </contour>
    </TTGlyph>
    <TTGlyph name="sweep_coincident_stops_forward_linen_gray_repeat" xMin="0" yMin="0" xMax="1000" yMax="1000">
      <contour>
        <pt x="0" y="0" on="1"/>
        <pt x="0" y="1000" on="1"/>
        <pt x="1000" y="1000" on="1"/>
        <pt x="1000" y="0" on="1"/>
      </contour>
    </TTGlyph>
    <TTGlyph name="sweep_coincident_stops_reverse_blue_red_pad" xMin="0" yMin="0" xMax="1000" yMax="1000">
      <contour>
        <pt x="0" y="0" on="1"/>
        <pt x="0" y="1000" on="1"/>
        <pt x="1000" y="1000" on="1"/>
        <pt x="1000" y="0" on="1"/>
      </contour>
    </TTGlyph>
    <TTGlyph name="sweep_coincident_stops_reverse_blue_red_reflect" xMin="0" yMin="0" xMax="1000" yMax="1000">
      <contour>
        <pt x="0" y="0" on="1"/>
        <pt x="0" y="1000" on="1"/>
        <pt x="1000" y="1000" on="1"/>
        <pt x="1000" y="0" on="1"/>
      </contour>
    </TTGlyph>
    <TTGlyph name="sweep_coincident_stops_reverse_blue_red_repeat" xMin="0" yMin="0" xMax="1000" yMax="1000">
      <contour>
        <pt x="0" y="0" on="1"/>
        <pt x="0" y="1000" on="1"/>
        <pt x="1000" y="1000" on="1"/>
        <pt x="1000" y="0" on="1"/>
      </contour>
    </TTGlyph>
    <TTGlyph name="sweep_coincident_stops_reverse_linen_gray_pad" xMin="0" yMin="0" xMax="1000" yMax="1000">
      <contour>
        <pt x="0" y="0" on="1"/>
        <pt x="0" y="1000" on="1"/>
        <pt x="1000" y="1000" on="1"/>
        <pt x="1000" y="0" on="1"/>
      </contour>
    </TTGlyph>
    <TTGlyph name="sweep_coincident_stops_reverse_linen_gray_reflect" xMin="0" yMin="0" xMax="1000" yMax="1000">
      <contour>
        <pt x="0" y="0" on="1"/>
        <pt x="0" y="1000" on="1"/>
        <pt x="1000" y="1000" on="1"/>
        <pt x="1000" y="0" on="1"/>
      </contour>
    </TTGlyph>
    <TTGlyph name="sweep_coincident_stops_reverse_linen_gray_repeat" xMin="0" yMin="0" xMax="1000" yMax="1000">
      <contour>
        <pt x="0" y="0" on="1"/>
        <pt x="0" y="1000" on="1"/>
        <pt x="1000" y="1000" on="1"/>
        <pt x="1000" y="0" on="1"/>
      </contour>
    </TTGlyph>
    <TTGlyph name="transform_matrix_0.9659_0.2588_-0.2588_0.9659_0_0" xMin="0" yMin="0" xMax="1000" yMax="1000">
      <contour>
        <pt x="0" y="0" on="1"/>
        <pt x="0" y="1000" on="1"/>
        <pt x="1000" y="1000" on="1"/>
        <pt x="1000" y="0" on="1"/>
      </contour>
    </TTGlyph>
    <TTGlyph name="transform_matrix_1.0_0.0_0.6_1.0_-300.0_0.0" xMin="0" yMin="0" xMax="1000" yMax="1000">
      <contour>
        <pt x="0" y="0" on="1"/>
        <pt x="0" y="1000" on="1"/>
        <pt x="1000" y="1000" on="1"/>
        <pt x="1000" y="0" on="1"/>
      </contour>
    </TTGlyph>
    <TTGlyph name="transform_matrix_1.5_0_0_1.5_0_0" xMin="0" yMin="0" xMax="1000" yMax="1000">
      <contour>
        <pt x="0" y="0" on="1"/>
        <pt x="0" y="1000" on="1"/>
        <pt x="1000" y="1000" on="1"/>
        <pt x="1000" y="0" on="1"/>
      </contour>
    </TTGlyph>
    <TTGlyph name="transform_matrix_1_0_0_1_125_125" xMin="0" yMin="0" xMax="1000" yMax="1000">
      <contour>
        <pt x="0" y="0" on="1"/>
        <pt x="0" y="1000" on="1"/>
        <pt x="1000" y="1000" on="1"/>
        <pt x="1000" y="0" on="1"/>
      </contour>
    </TTGlyph>
    <TTGlyph name="translate_-100_0" xMin="0" yMin="0" xMax="1000" yMax="1000">
      <contour>
        <pt x="0" y="0" on="1"/>
        <pt x="0" y="1000" on="1"/>
        <pt x="1000" y="1000" on="1"/>
        <pt x="1000" y="0" on="1"/>
      </contour>
    </TTGlyph>
    <TTGlyph name="translate_-200_-200" xMin="0" yMin="0" xMax="1000" yMax="1000">
      <contour>
        <pt x="0" y="0" on="1"/>
        <pt x="0" y="1000" on="1"/>
        <pt x="1000" y="1000" on="1"/>
        <pt x="1000" y="0" on="1"/>
      </contour>
    </TTGlyph>
    <TTGlyph name="translate_0_-100" xMin="0" yMin="0" xMax="1000" yMax="1000">
      <contour>
        <pt x="0" y="0" on="1"/>
        <pt x="0" y="1000" on="1"/>
        <pt x="1000" y="1000" on="1"/>
        <pt x="1000" y="0" on="1"/>
      </contour>
    </TTGlyph>
    <TTGlyph name="translate_0_0" xMin="0" yMin="0" xMax="1000" yMax="1000">
      <contour>
        <pt x="0" y="0" on="1"/>
        <pt x="0" y="1000" on="1"/>
        <pt x="1000" y="1000" on="1"/>
        <pt x="1000" y="0" on="1"/>
      </contour>
    </TTGlyph>
    <TTGlyph name="translate_0_100" xMin="0" yMin="0" xMax="1000" yMax="1000">
      <contour>
        <pt x="0" y="0" on="1"/>
        <pt x="0" y="1000" on="1"/>
        <pt x="1000" y="1000" on="1"/>
        <pt x="1000" y="0" on="1"/>
      </contour>
    </TTGlyph>
    <TTGlyph name="translate_100_0" xMin="0" yMin="0" xMax="1000" yMax="1000">
      <contour>
        <pt x="0" y="0" on="1"/>
        <pt x="0" y="1000" on="1"/>
        <pt x="1000" y="1000" on="1"/>
        <pt x="1000" y="0" on="1"/>
      </contour>
    </TTGlyph>
    <TTGlyph name="translate_200_200" xMin="0" yMin="0" xMax="1000" yMax="1000">
      <contour>
        <pt x="0" y="0" on="1"/>
        <pt x="0" y="1000" on="1"/>
        <pt x="1000" y="1000" on="1"/>
        <pt x="1000" y="0" on="1"/>
      </contour>
    </TTGlyph>
    <TTGlyph name="triangle" xMin="200" yMin="250" xMax="800" yMax="770">
      <contour>
        <pt x="200" y="250" on="1"/>
        <pt x="500" y="770" on="1"/>
        <pt x="800" y="250" on="1"/>
      </contour>
    </TTGlyph>
    <TTGlyph name="upem_box_glyph" xMin="0" yMin="0" xMax="1000" yMax="1000">
      <contour>
        <pt x="0" y="0" on="1"/>
        <pt x="0" y="1000" on="1"/>
        <pt x="1000" y="1000" on="1"/>
        <pt x="1000" y="0" on="1"/>
      </contour>
    </TTGlyph>
    <TTGlyph name="zero" xMin="173" yMin="246" xMax="357" yMax="545">
      <contour>
        <pt x="357" y="374" on="1"/>
        <pt x="357" y="303" on="0"/>
        <pt x="308" y="246" on="0"/>
        <pt x="265" y="246" on="1"/>
        <pt x="223" y="246" on="0"/>
        <pt x="173" y="303" on="0"/>
        <pt x="173" y="374" on="1"/>
        <pt x="173" y="419" on="1"/>
        <pt x="173" y="490" on="0"/>
        <pt x="223" y="545" on="0"/>
        <pt x="265" y="545" on="1"/>
        <pt x="307" y="545" on="0"/>
        <pt x="357" y="490" on="0"/>
        <pt x="357" y="419" on="1"/>
      </contour>
      <contour>
        <pt x="320" y="425" on="1"/>
        <pt x="320" y="474" on="0"/>
        <pt x="292" y="515" on="0"/>
        <pt x="265" y="515" on="1"/>
        <pt x="238" y="515" on="0"/>
        <pt x="210" y="474" on="0"/>
        <pt x="210" y="425" on="1"/>
        <pt x="210" y="368" on="1"/>
        <pt x="210" y="320" on="0"/>
        <pt x="239" y="276" on="0"/>
        <pt x="265" y="276" on="1"/>
        <pt x="292" y="276" on="0"/>
        <pt x="320" y="320" on="0"/>
        <pt x="320" y="368" on="1"/>
      </contour>
    </TTGlyph>
</ttFont>
